<?xml version="1.0" encoding="utf-8"?>
<!-- Generator: Adobe Illustrator 19.0.0, SVG Export Plug-In . SVG Version: 6.00 Build 0)  -->
<svg version="1.1" id="Layer_1" xmlns="http://www.w3.org/2000/svg" xmlns:xlink="http://www.w3.org/1999/xlink" x="0px" y="0px"
	 viewBox="0 0 96 96" style="enable-background:new 0 0 96 96;" xml:space="preserve">
<style type="text/css">
	.st0{fill:#ffffff;}
</style>
<g id="XMLID_15_">
	<path id="XMLID_29_" class="st0" d="M48,33.4V21.8H18.8v52.5h58.3V33.4H48z M30.5,68.4h-5.8v-5.8h5.8V68.4z M30.5,56.8h-5.8v-5.8
		h5.8V56.8z M30.5,45.1h-5.8v-5.8h5.8V45.1z M30.5,33.4h-5.8v-5.8h5.8V33.4z M42.2,68.4h-5.8v-5.8h5.8V68.4z M42.2,56.8h-5.8v-5.8
		h5.8V56.8z M42.2,45.1h-5.8v-5.8h5.8V45.1z M42.2,33.4h-5.8v-5.8h5.8V33.4z M71.3,68.4H48v-5.8h5.8v-5.8H48v-5.8h5.8v-5.8H48v-5.8
		h23.3V68.4z M65.5,45.1h-5.8v5.8h5.8V45.1z M65.5,56.8h-5.8v5.8h5.8V56.8z"/>
</g>
</svg>
