<?xml version="1.0" encoding="utf-8"?>
<!-- Svg Vector Icons : http://www.onlinewebfonts.com/icon -->
<!DOCTYPE svg PUBLIC "-//W3C//DTD SVG 1.1//EN" "http://www.w3.org/Graphics/SVG/1.1/DTD/svg11.dtd">
<svg version="1.1" xmlns="http://www.w3.org/2000/svg" xmlns:xlink="http://www.w3.org/1999/xlink" x="0px" y="0px" viewBox="0 0 1000 1000" enable-background="new 0 0 1000 1000" xml:space="preserve">
<style type="text/css">
	.st0{fill:#ffffff;}
</style>
<g><g transform="translate(0.000000,511.000000) scale(0.100000,-0.100000)"><path class="st0" d="M5554.9,4829.1C5433,4785,4082,3465.5,3993.8,3303.7c-35.7-65.1-42-138.7-50.4-693.4l-10.5-619.8l-298.4-6.3l-300.5-6.3v-2971v-2973.1l2937.4,4.2l2935.3,6.3l115.6,46.2c233.2,96.7,434.9,298.4,531.6,531.6l46.2,115.6v2269.2v2269.2l-46.2,115.6c-128.2,313.1-413.9,535.8-748,584.1l-109.3,14.7L8986,3230.2l-10.5,1239.7l-56.7,98.8c-33.6,52.5-94.6,126.1-136.6,161.8c-159.7,130.3-121.9,128.2-1706.1,128.2C5926.8,4856.4,5617.9,4850.1,5554.9,4829.1z M8532.2,4522.4c33.6-16.8,81.9-58.8,105.1-90.3c44.1-58.8,44.1-65.1,44.1-2027.6V435.7H6464.7H4248v1292.2V3020l546.3,10.5c542.1,10.5,546.3,10.5,653.5,67.2c121.9,65.1,226.9,176.5,283.7,298.4c33.6,75.6,39.9,147.1,39.9,613.5c0,290,6.3,533.7,14.7,542.1c8.4,6.3,615.6,10.5,1348.9,8.4C8273.7,4553.9,8479.6,4549.7,8532.2,4522.4z M5529.7-698.9v-357.2h-556.8h-556.8l-6.3,336.2c-2.1,182.8,0,346.7,4.2,361.4c8.4,23.1,124,27.3,563.1,23.1l552.6-6.3V-698.9z M7000.5-698.9v-357.2h-546.3h-546.3l-6.3,336.2c-2.1,182.8,0,346.7,4.2,361.4c8.4,23.1,121.9,27.3,552.6,23.1l542.1-6.3V-698.9z M8492.2-698.9v-357.2h-556.8h-556.8l-6.3,336.2c-2.1,182.8,0,346.7,4.2,361.4c8.4,23.1,124,27.3,563.1,23.1l552.6-6.3V-698.9z M5529.7-1770.5v-336.2h-556.8h-556.8l-6.3,315.2c-2.1,172.3,0,325.7,4.2,340.4c8.4,23.1,124,27.3,563.1,23.1l552.6-6.3V-1770.5z M7000.5-1770.5v-336.2h-546.3h-546.3l-6.3,315.2c-2.1,172.3,0,325.7,4.2,340.4c8.4,23.1,121.9,27.3,552.6,23.1l542.1-6.3V-1770.5z M8492.2-1770.5v-336.2h-556.8h-556.8l-6.3,315.2c-2.1,172.3,0,325.7,4.2,340.4c8.4,23.1,124,27.3,563.1,23.1l552.6-6.3V-1770.5z M5529.7-2842.1v-357.2h-556.8h-556.8l-6.3,336.2c-2.1,182.8,0,346.7,4.2,361.4c8.4,23.1,124,27.3,563.1,23.1l552.6-6.3V-2842.1z M7000.5-2842.1v-357.2h-546.3h-546.3l-6.3,336.2c-2.1,182.8,0,346.7,4.2,361.4c8.4,23.1,121.9,27.3,552.6,23.1l542.1-6.3V-2842.1z M8492.2-2842.1v-357.2h-556.8h-556.8l-6.3,336.2c-2.1,182.8,0,346.7,4.2,361.4c8.4,23.1,124,27.3,563.1,23.1l552.6-6.3V-2842.1z"/><path class="st0" d="M6359.6,3114.6v-147.1h840.4h840.4v147.1v147.1h-840.4h-840.4V3114.6z"/><path class="st0" d="M4888.8,2169.1V2022h1575.8h1575.8v147.1v147.1H6464.7H4888.8V2169.1z"/><path class="st0" d="M4888.8,1223.6v-147.1h1575.8h1575.8v147.1v147.1H6464.7H4888.8V1223.6z"/><path class="st0" d="M1489.2,2587.2c-145-71.4-218.5-149.2-290-302.6l-50.4-105.1V-993.1v-3172.7l50.4-105.1c71.4-153.4,145-231.1,290-302.6l128.2-65.1h455.9h455.9l128.2,65.1c145,71.4,218.5,149.2,290,302.6l50.4,105.1V-991v3174.8l-65.1,128.2c-71.4,145-149.2,218.5-302.6,290c-100.8,48.3-128.2,50.4-558.9,50.4h-453.8L1489.2,2587.2z"/><path class="st0" d="M676.1,1917c-218.5-86.1-426.5-294.2-521.1-525.3l-46.2-115.6l-6.3-2216.7c-6.3-2479.3-12.6-2361.7,142.9-2601.2c117.7-184.9,317.3-334.1,521.1-392.9l46.2-12.6v2952.1c0,1624.2-6.3,2954.2-14.7,2952.1C787.5,1956.9,734.9,1938,676.1,1917z"/></g></g>
</svg>