<?xml version="1.0" encoding="utf-8"?>
<!-- Svg Vector Icons : http://www.onlinewebfonts.com/icon -->
<!DOCTYPE svg PUBLIC "-//W3C//DTD SVG 1.1//EN" "http://www.w3.org/Graphics/SVG/1.1/DTD/svg11.dtd">
<svg version="1.1" xmlns="http://www.w3.org/2000/svg" xmlns:xlink="http://www.w3.org/1999/xlink" x="0px" y="0px" viewBox="0 0 1000 1000" enable-background="new 0 0 1000 1000" xml:space="preserve">
<metadata> Svg Vector Icons : http://www.onlinewebfonts.com/icon </metadata>
<g><path d="M469.5,684.1l490.8-490.8c15.9-16,15.9-41.8,0-57.8l-57.7-57.7c-15.9-16-41.8-16-57.8,0L354,568.7L469.5,684.1z"/><path d="M296.2,626.4c-31.9,31.9-60.8,112.5-28.9,144.4c31.9,31.9,112.5,3,144.4-28.9l28.9-28.9L325.1,597.5L296.2,626.4z"/><path d="M885.2,867.5c0,22.5-18.3,40.8-40.8,40.8H150.2c-22.6,0-40.8-18.3-40.8-40.8v-735c0-22.6,18.3-40.8,40.8-40.8h530.8V10H109.4c-45.1,0-81.7,36.6-81.7,81.7v816.7c0,45.1,36.6,81.6,81.7,81.6h775.8c45.1,0,81.7-36.5,81.7-81.6v-490h-81.7V867.5z"/></g>
</svg>