<?xml version="1.0" encoding="UTF-8" standalone="no"?>
<svg
   xmlns:dc="http://purl.org/dc/elements/1.1/"
   xmlns:cc="http://creativecommons.org/ns#"
   xmlns:rdf="http://www.w3.org/1999/02/22-rdf-syntax-ns#"
   xmlns:svg="http://www.w3.org/2000/svg"
   xmlns="http://www.w3.org/2000/svg"
   xmlns:xlink="http://www.w3.org/1999/xlink"
   xmlns:sodipodi="http://sodipodi.sourceforge.net/DTD/sodipodi-0.dtd"
   xmlns:inkscape="http://www.inkscape.org/namespaces/inkscape"
   inkscape:export-ydpi="39.619999"
   inkscape:export-xdpi="39.619999"
   inkscape:export-filename="C:\Users\dylan\Desktop\Logo_tiny.png"
   width="512"
   height="512"
   viewBox="0 0 352.77779 352.77779"
   version="1.1"
   id="svg8"
   inkscape:version="1.0 (4035a4fb49, 2020-05-01)"
   sodipodi:docname="logo_mask.svg">
  <defs
     id="defs2">
    <linearGradient
       inkscape:collect="always"
       id="linearGradient884">
      <stop
         style="stop-color:#d400dc;stop-opacity:1"
         offset="0"
         id="stop880" />
      <stop
         style="stop-color:#0096cc;stop-opacity:1"
         offset="1"
         id="stop882" />
    </linearGradient>
    <linearGradient
       inkscape:collect="always"
       xlink:href="#linearGradient884"
       id="linearGradient886"
       x1="29.638138"
       y1="26.982182"
       x2="102.65353"
       y2="102.54736"
       gradientUnits="userSpaceOnUse"
       gradientTransform="matrix(2.7759637,0,0,2.7759637,-7.2295378,-7.229513)" />
  </defs>
  <sodipodi:namedview
     id="base"
     pagecolor="#ffffff"
     bordercolor="#666666"
     borderopacity="1.0"
     inkscape:pageopacity="0.0"
     inkscape:pageshadow="2"
     inkscape:zoom="1.3848341"
     inkscape:cx="328.64012"
     inkscape:cy="242.78203"
     inkscape:document-units="mm"
     inkscape:current-layer="layer2"
     inkscape:document-rotation="0"
     showgrid="false"
     units="px"
     width="49px"
     inkscape:pagecheckerboard="true"
     inkscape:snap-grids="true"
     inkscape:window-width="1920"
     inkscape:window-height="1027"
     inkscape:window-x="-8"
     inkscape:window-y="-8"
     inkscape:window-maximized="1" />
  <metadata
     id="metadata5">
    <rdf:RDF>
      <cc:Work
         rdf:about="">
        <dc:format>image/svg+xml</dc:format>
        <dc:type
           rdf:resource="http://purl.org/dc/dcmitype/StillImage" />
        <dc:title></dc:title>
      </cc:Work>
    </rdf:RDF>
  </metadata>
  <g
     inkscape:groupmode="layer"
     id="layer2"
     inkscape:label="Base Icon"
     style="display:inline">
    <rect
       inkscape:label="BG"
       y="-4.4408921e-16"
       x="0"
       height="352.7778"
       width="352.7778"
       id="rect836"
       style="fill:#ffffff;fill-opacity:1;stroke-width:37.6944;stroke-dashoffset:88.7603;stroke-opacity:0.25;paint-order:fill markers stroke" />
    <path
       id="path888"
       d="M 252.26474,252.26475 H 100.513 V 100.51307 h 151.75174 m 0,-21.67883 H 100.513 a 21.678818,21.678818 0 0 0 -21.678791,21.67883 v 151.75168 a 21.678818,21.678818 0 0 0 21.678791,21.6788 h 151.75174 a 21.678818,21.678818 0 0 0 21.67884,-21.6788 V 100.51307 c 0,-12.031761 -9.75551,-21.67883 -21.67884,-21.67883 m -27.09853,143.62215 c 0,-16.25911 -32.51822,-24.38865 -48.77733,-24.38865 -16.25912,0 -48.77736,8.12954 -48.77736,24.38865 v 8.12956 h 97.55469 m -48.77733,-51.48718 a 24.388669,24.388669 0 0 0 24.38864,-24.38869 24.388669,24.388669 0 0 0 -24.38864,-24.38865 24.388669,24.388669 0 0 0 -24.38869,24.38865 24.388669,24.388669 0 0 0 24.38869,24.38869 z"
       style="fill:url(#linearGradient886);fill-opacity:1;stroke-width:10.8393"
       inkscape:label="Icon" />
  </g>
</svg>
