<?xml version="1.0" encoding="UTF-8" standalone="no"?>
<svg
   xmlns:dc="http://purl.org/dc/elements/1.1/"
   xmlns:cc="http://creativecommons.org/ns#"
   xmlns:rdf="http://www.w3.org/1999/02/22-rdf-syntax-ns#"
   xmlns:svg="http://www.w3.org/2000/svg"
   xmlns="http://www.w3.org/2000/svg"
   xmlns:xlink="http://www.w3.org/1999/xlink"
   xmlns:sodipodi="http://sodipodi.sourceforge.net/DTD/sodipodi-0.dtd"
   xmlns:inkscape="http://www.inkscape.org/namespaces/inkscape"
   sodipodi:docname="logo_32_square.svg"
   inkscape:version="1.0 (4035a4fb49, 2020-05-01)"
   id="svg8"
   version="1.1"
   viewBox="0 0 22.048612 22.048612"
   height="32"
   width="32"
   inkscape:export-filename="C:\Users\dylan\Desktop\Logo_tiny.png"
   inkscape:export-xdpi="39.619999"
   inkscape:export-ydpi="39.619999">
  <defs
     id="defs2">
    <linearGradient
       id="linearGradient884"
       inkscape:collect="always">
      <stop
         id="stop880"
         offset="0"
         style="stop-color:#d400dc;stop-opacity:1" />
      <stop
         id="stop882"
         offset="1"
         style="stop-color:#0096cc;stop-opacity:1" />
    </linearGradient>
    <linearGradient
       gradientTransform="matrix(0.26872072,0,0,0.26885832,-6.7492581,-6.7676287)"
       gradientUnits="userSpaceOnUse"
       y2="102.54736"
       x2="102.65353"
       y1="26.982182"
       x1="29.638138"
       id="linearGradient886"
       xlink:href="#linearGradient884"
       inkscape:collect="always" />
  </defs>
  <sodipodi:namedview
     inkscape:window-maximized="1"
     inkscape:window-y="-8"
     inkscape:window-x="1912"
     inkscape:window-height="1027"
     inkscape:window-width="1920"
     inkscape:snap-grids="true"
     inkscape:pagecheckerboard="true"
     width="49px"
     units="px"
     showgrid="false"
     inkscape:document-rotation="0"
     inkscape:current-layer="layer2"
     inkscape:document-units="mm"
     inkscape:cy="24.353734"
     inkscape:cx="18.842721"
     inkscape:zoom="7.6290575"
     inkscape:pageshadow="2"
     inkscape:pageopacity="0.0"
     borderopacity="1.0"
     bordercolor="#666666"
     pagecolor="#ffffff"
     id="base" />
  <metadata
     id="metadata5">
    <rdf:RDF>
      <cc:Work
         rdf:about="">
        <dc:format>image/svg+xml</dc:format>
        <dc:type
           rdf:resource="http://purl.org/dc/dcmitype/StillImage" />
        <dc:title></dc:title>
      </cc:Work>
    </rdf:RDF>
  </metadata>
  <g
     style="display:inline"
     inkscape:label="Base Icon"
     id="layer2"
     inkscape:groupmode="layer">
    <path
       sodipodi:nodetypes="ccccccccc"
       d="M 18.238095,0.00476516 C 13.219304,0.00993799 8.1995744,-0.02149155 3.1814513,0.04442552 1.3235816,0.24587649 -0.14154916,2.0948506 0.0109086,3.9445436 0.04208668,8.9470538 -0.02093892,13.950598 0.06743101,18.952449 c 0.25698758,1.835162 2.10090069,3.255242 3.93644339,3.08181 4.9769832,-0.02304 9.9548586,0.02815 14.9312156,-0.0498 1.834725,-0.24749 3.270527,-2.083281 3.099715,-3.922183 -0.01197,-4.956058 0.02268,-9.9129854 -0.044,-14.8684217 -0.175804,-1.8176948 -1.941008,-3.28855892 -3.75271,-3.18908914 z"
       inkscape:label="Outline"
       style="fill:#ffffff;fill-opacity:1;stroke-width:1.04956"
       id="path874" />
    <path
       inkscape:label="Icon"
       style="fill:url(#linearGradient886);fill-opacity:1;stroke-width:1.04956"
       d="M 18.370484,18.364974 H 3.6805077 V 3.6674834 H 18.370484 m 0,-2.0996436 H 3.6805077 A 2.0985676,2.0996421 0 0 0 1.5819429,3.6674834 V 18.364974 a 2.0985676,2.0996421 0 0 0 2.0985648,2.099642 H 18.370484 a 2.0985676,2.0996421 0 0 0 2.098569,-2.099642 V 3.6674834 c 0,-1.1653031 -0.944358,-2.0996436 -2.098569,-2.0996436 m -2.62321,13.9101272 c 0,-1.57473 -3.147851,-2.362096 -4.721777,-2.362096 -1.5739263,0 -4.721777,0.787366 -4.721777,2.362096 v 0.787367 h 9.443554 m -4.721777,-4.986649 a 2.3608886,2.3620974 0 0 0 2.360886,-2.3621 2.3608886,2.3620974 0 0 0 -2.360886,-2.362095 2.3608886,2.3620974 0 0 0 -2.3608913,2.362095 2.3608886,2.3620974 0 0 0 2.3608913,2.3621 z"
       id="path888" />
  </g>
</svg>
