<?xml version="1.0" encoding="UTF-8" standalone="no"?>
<svg
   xmlns:dc="http://purl.org/dc/elements/1.1/"
   xmlns:cc="http://creativecommons.org/ns#"
   xmlns:rdf="http://www.w3.org/1999/02/22-rdf-syntax-ns#"
   xmlns:svg="http://www.w3.org/2000/svg"
   xmlns="http://www.w3.org/2000/svg"
   xmlns:xlink="http://www.w3.org/1999/xlink"
   xmlns:sodipodi="http://sodipodi.sourceforge.net/DTD/sodipodi-0.dtd"
   xmlns:inkscape="http://www.inkscape.org/namespaces/inkscape"
   inkscape:export-ydpi="39.619999"
   inkscape:export-xdpi="39.619999"
   inkscape:export-filename="C:\Users\dylan\Desktop\Logo_tiny.png"
   width="512"
   height="512"
   viewBox="0 0 352.77779 352.77779"
   version="1.1"
   id="svg8"
   inkscape:version="1.0 (4035a4fb49, 2020-05-01)"
   sodipodi:docname="logo_512_square.svg">
  <defs
     id="defs2">
    <linearGradient
       inkscape:collect="always"
       id="linearGradient884">
      <stop
         style="stop-color:#d400dc;stop-opacity:1"
         offset="0"
         id="stop880" />
      <stop
         style="stop-color:#0096cc;stop-opacity:1"
         offset="1"
         id="stop882" />
    </linearGradient>
    <linearGradient
       inkscape:collect="always"
       xlink:href="#linearGradient884"
       id="linearGradient886"
       x1="29.638138"
       y1="26.982182"
       x2="102.65353"
       y2="102.54736"
       gradientUnits="userSpaceOnUse"
       gradientTransform="matrix(4.2995315,0,0,4.3017331,-107.98813,-108.28206)" />
  </defs>
  <sodipodi:namedview
     id="base"
     pagecolor="#ffffff"
     bordercolor="#666666"
     borderopacity="1.0"
     inkscape:pageopacity="0.0"
     inkscape:pageshadow="2"
     inkscape:zoom="0.97922558"
     inkscape:cx="232.8346"
     inkscape:cy="227.95983"
     inkscape:document-units="mm"
     inkscape:current-layer="layer2"
     inkscape:document-rotation="0"
     showgrid="false"
     units="px"
     width="49px"
     inkscape:pagecheckerboard="true"
     inkscape:snap-grids="true"
     inkscape:window-width="1920"
     inkscape:window-height="1027"
     inkscape:window-x="-8"
     inkscape:window-y="-8"
     inkscape:window-maximized="1" />
  <metadata
     id="metadata5">
    <rdf:RDF>
      <cc:Work
         rdf:about="">
        <dc:format>image/svg+xml</dc:format>
        <dc:type
           rdf:resource="http://purl.org/dc/dcmitype/StillImage" />
        <dc:title></dc:title>
      </cc:Work>
    </rdf:RDF>
  </metadata>
  <g
     inkscape:groupmode="layer"
     id="layer2"
     inkscape:label="Base Icon"
     style="display:inline">
    <path
       id="path874"
       style="fill:#ffffff;fill-opacity:1;stroke-width:16.7929"
       inkscape:label="Outline"
       d="M 291.80952,0.07624239 C 211.50886,0.15900774 131.19319,-0.34386486 50.903221,0.71080819 21.177306,3.9340237 -2.2647865,33.51761 0.17453766,63.112697 0.67338698,143.15286 -0.33502257,223.20957 1.0788962,303.23918 c 4.1118013,29.36259 33.6144108,52.08388 62.9830938,49.30897 79.63173,-0.36866 159.27774,0.45045 238.89945,-0.79681 29.3556,-3.95984 52.32843,-33.3325 49.59543,-62.75493 -0.19149,-79.29693 0.3629,-158.60776 -0.70397,-237.894742 C 349.04002,22.018552 320.79675,-1.5152741 291.80952,0.07624239 Z"
       sodipodi:nodetypes="ccccccccc" />
    <path
       id="path888"
       d="M 293.92774,293.83958 H 58.888123 V 58.679735 H 293.92774 m 0,-33.594298 H 58.888123 A 33.577082,33.594274 0 0 0 25.311087,58.679735 V 293.83958 a 33.577082,33.594274 0 0 0 33.577036,33.59427 H 293.92774 a 33.577082,33.594274 0 0 0 33.57711,-33.59427 V 58.679735 c 0,-18.644851 -15.10974,-33.594298 -33.57711,-33.594298 M 251.95638,247.64747 c 0,-25.19568 -50.36561,-37.79353 -75.54843,-37.79353 -25.18282,0 -75.54843,12.59785 -75.54843,37.79353 v 12.59788 h 151.09686 m -75.54843,-79.78639 a 37.774218,37.793559 0 0 0 37.77417,-37.7936 37.774218,37.793559 0 0 0 -37.77417,-37.79352 37.774218,37.793559 0 0 0 -37.77426,37.79352 37.774218,37.793559 0 0 0 37.77426,37.7936 z"
       style="fill:url(#linearGradient886);fill-opacity:1;stroke-width:16.7929"
       inkscape:label="Icon" />
  </g>
</svg>
