<?xml version="1.0" encoding="UTF-8" standalone="no"?>
<svg
   xmlns:dc="http://purl.org/dc/elements/1.1/"
   xmlns:cc="http://creativecommons.org/ns#"
   xmlns:rdf="http://www.w3.org/1999/02/22-rdf-syntax-ns#"
   xmlns:svg="http://www.w3.org/2000/svg"
   xmlns="http://www.w3.org/2000/svg"
   xmlns:xlink="http://www.w3.org/1999/xlink"
   xmlns:sodipodi="http://sodipodi.sourceforge.net/DTD/sodipodi-0.dtd"
   xmlns:inkscape="http://www.inkscape.org/namespaces/inkscape"
   sodipodi:docname="logo_tiny.svg"
   inkscape:version="1.0 (4035a4fb49, 2020-05-01)"
   id="svg8"
   version="1.1"
   viewBox="0 0 132.29167 132.29167"
   height="500"
   width="500"
   inkscape:export-filename="C:\Users\dylan\Desktop\Logo_tiny.png"
   inkscape:export-xdpi="39.619999"
   inkscape:export-ydpi="39.619999">
  <defs
     id="defs2">
    <linearGradient
       id="linearGradient884"
       inkscape:collect="always">
      <stop
         id="stop880"
         offset="0"
         style="stop-color:#d400dc;stop-opacity:1" />
      <stop
         id="stop882"
         offset="1"
         style="stop-color:#0096cc;stop-opacity:1" />
    </linearGradient>
    <linearGradient
       gradientTransform="matrix(1.5716007,0,0,1.5716007,-38.17269,-37.460141)"
       gradientUnits="userSpaceOnUse"
       y2="102.54736"
       x2="102.65353"
       y1="26.982182"
       x1="29.638138"
       id="linearGradient886"
       xlink:href="#linearGradient884"
       inkscape:collect="always" />
  </defs>
  <sodipodi:namedview
     inkscape:window-maximized="0"
     inkscape:window-y="21"
     inkscape:window-x="196"
     inkscape:window-height="1041"
     inkscape:window-width="1295"
     inkscape:snap-grids="true"
     inkscape:pagecheckerboard="true"
     width="49px"
     units="px"
     showgrid="false"
     inkscape:document-rotation="0"
     inkscape:current-layer="layer2"
     inkscape:document-units="mm"
     inkscape:cy="355.81909"
     inkscape:cx="232.6474"
     inkscape:zoom="0.711"
     inkscape:pageshadow="2"
     inkscape:pageopacity="0.0"
     borderopacity="1.0"
     bordercolor="#666666"
     pagecolor="#ffffff"
     id="base" />
  <metadata
     id="metadata5">
    <rdf:RDF>
      <cc:Work
         rdf:about="">
        <dc:format>image/svg+xml</dc:format>
        <dc:type
           rdf:resource="http://purl.org/dc/dcmitype/StillImage" />
        <dc:title></dc:title>
      </cc:Work>
    </rdf:RDF>
  </metadata>
  <g
     style="display:inline"
     inkscape:label="Base Icon"
     id="layer2"
     inkscape:groupmode="layer">
    <path
       sodipodi:nodetypes="ccccccccc"
       d="M 107.96469,2.1276195 C 78.612522,2.1578571 49.254864,1.974137 19.906604,2.3594526 9.0409392,3.5370263 0.47218976,14.345132 1.3638319,25.157439 1.5461755,54.399415 1.1775732,83.647435 1.6944006,112.88556 c 1.50298,10.72737 12.2870204,19.02839 23.0221064,18.0146 29.107659,-0.13469 58.220529,0.16457 87.324523,-0.29111 10.7303,-1.44669 19.12752,-12.17773 18.12854,-22.92696 -0.07,-28.970443 0.13265,-57.945964 -0.25732,-86.912776 C 128.88406,10.144051 118.56034,1.5461728 107.96469,2.1276195 Z"
       inkscape:label="Outline"
       style="fill:#ffffff;fill-opacity:1;stroke-width:6.13667"
       id="path874" />
    <path
       inkscape:label="Icon"
       style="fill:url(#linearGradient886);fill-opacity:1;stroke-width:6.13667"
       d="M 108.73895,109.4515 H 22.825312 V 23.537895 h 85.913638 m 0,-12.273384 H 22.825312 A 12.273375,12.273375 0 0 0 10.551953,23.537895 V 109.4515 a 12.273375,12.273375 0 0 0 12.273359,12.27337 H 108.73895 A 12.273375,12.273375 0 0 0 121.01234,109.4515 V 23.537895 c 0,-6.811734 -5.52304,-12.273384 -12.27339,-12.273384 M 93.397231,92.575615 c 0,-9.205028 -18.41006,-13.807535 -27.615091,-13.807535 -9.205032,0 -27.615093,4.602507 -27.615093,13.807535 v 4.602523 H 93.397231 M 65.78214,68.028877 A 13.807547,13.807547 0 0 0 79.589676,54.221316 13.807547,13.807547 0 0 0 65.78214,40.41378 13.807547,13.807547 0 0 0 51.974582,54.221316 13.807547,13.807547 0 0 0 65.78214,68.028877 Z"
       id="path888" />
  </g>
</svg>
